<svg xmlns="http://www.w3.org/2000/svg" viewBox="0 0 360 230"><defs><linearGradient id="paper" x2="1" y2="1"><stop stop-color="#fff2c8"/><stop offset=".48" stop-color="#e9d6a6"/><stop offset="1" stop-color="#bc9456"/></linearGradient><linearGradient id="leather" x2="1" y2="1"><stop stop-color="#815435"/><stop offset="1" stop-color="#342116"/></linearGradient><radialGradient id="wax"><stop stop-color="#bd5d3e"/><stop offset=".7" stop-color="#86351f"/><stop offset="1" stop-color="#522015"/></radialGradient><filter id="grain"><feTurbulence type="fractalNoise" baseFrequency=".64" numOctaves="3" seed="9"/><feColorMatrix type="saturate" values="0"/><feComponentTransfer><feFuncA type="linear" slope=".07"/></feComponentTransfer><feBlend in="SourceGraphic" mode="multiply"/></filter></defs><rect x="4" y="4" width="352" height="222" rx="11" fill="#251b13" opacity=".65"/><rect x="8" y="7" width="344" height="214" rx="7" fill="url(#paper)" stroke="#a77c42" stroke-width="2" filter="url(#grain)"/><path d="M9 8H107L9 91Z" fill="url(#leather)"/><path d="M9 220V138L110 220Z" fill="url(#leather)"/><path d="M352 8V63L294 8Z" fill="#c0a06a" opacity=".5"/><path d="M12 93L108 10M12 137L113 218" fill="none" stroke="#b5905b" stroke-width="2"/><rect x="21" y="19" width="318" height="190" rx="3" fill="none" stroke="#b79055" opacity=".45"/><path d="M159 203c-20-4-31-16-30-32m-1 3l-9-9m12 14l-10-5m13 12l-11-3m16 10l-11 1m17 5l-10 3m32 1c20-4 31-16 30-32m1 3l9-9m-12 14l10-5m-13 12l11-3m-16 10l11 1m-17 5l10 3" fill="none" stroke="#795b32" stroke-width="3" stroke-linecap="round"/><circle cx="317" cy="192" r="18" fill="url(#wax)" stroke="#652818" stroke-width="2"/><circle cx="317" cy="192" r="12" fill="none" stroke="#d18556" opacity=".7"/><path d="M311 197v-10l6 7 6-7v10" fill="none" stroke="#e8b87a" stroke-width="1.6"/></svg>